<svg width="32" height="32" viewBox="0 0 32 32" fill="none" xmlns="http://www.w3.org/2000/svg">
<path d="M13.696 4.94001C13.8352 5.16273 13.9292 5.41069 13.9725 5.66972C14.0159 5.92876 14.0078 6.19381 13.9488 6.44973C13.8897 6.70564 13.7808 6.94742 13.6283 7.16126C13.4758 7.3751 13.2827 7.5568 13.06 7.69601C10.6258 9.2122 8.69202 11.4117 7.5 14.02C8.70377 13.9193 9.9099 14.1844 10.9606 14.7804C12.0113 15.3765 12.8576 16.2758 13.3888 17.3607C13.9199 18.4456 14.1113 19.6656 13.9378 20.8611C13.7642 22.0565 13.2339 23.1717 12.4162 24.0608C11.5984 24.9499 10.5314 25.5715 9.35458 25.8442C8.17779 26.1169 6.94609 26.0281 5.82062 25.5893C4.69515 25.1506 3.72833 24.3823 3.04665 23.385C2.36497 22.3878 2.00018 21.208 2 20V19.946C2.00217 19.7912 2.00884 19.6364 2.02 19.482C2.038 19.182 2.074 18.762 2.144 18.246C2.284 17.22 2.558 15.806 3.112 14.218C4.216 11.038 6.452 7.10801 10.94 4.30401C11.1627 4.1648 11.4107 4.07083 11.6697 4.02746C11.9288 3.98409 12.1938 3.99216 12.4497 4.05122C12.7056 4.11028 12.9474 4.21916 13.1613 4.37166C13.3751 4.52416 13.5568 4.71728 13.696 4.94001ZM27.696 4.94001C27.8352 5.16273 27.9292 5.41069 27.9725 5.66972C28.0159 5.92876 28.0078 6.19381 27.9488 6.44973C27.8897 6.70564 27.7808 6.94742 27.6283 7.16126C27.4758 7.3751 27.2827 7.5568 27.06 7.69601C24.6258 9.2122 22.692 11.4117 21.5 14.02C22.7038 13.9193 23.9099 14.1844 24.9606 14.7804C26.0113 15.3765 26.8576 16.2758 27.3888 17.3607C27.9199 18.4456 28.1113 19.6656 27.9378 20.8611C27.7642 22.0565 27.2339 23.1717 26.4162 24.0608C25.5984 24.9499 24.5314 25.5715 23.3546 25.8442C22.1778 26.1169 20.9461 26.0281 19.8206 25.5893C18.6951 25.1506 17.7283 24.3823 17.0466 23.385C16.365 22.3878 16.0002 21.208 16 20V19.946C16.0022 19.7912 16.0088 19.6364 16.02 19.482C16.038 19.182 16.074 18.762 16.144 18.246C16.284 17.22 16.558 15.806 17.112 14.218C18.216 11.038 20.452 7.10801 24.94 4.30401C25.1627 4.1648 25.4107 4.07083 25.6697 4.02746C25.9288 3.98409 26.1938 3.99216 26.4497 4.05122C26.7056 4.11028 26.9474 4.21916 27.1613 4.37166C27.3751 4.52416 27.5568 4.71728 27.696 4.94001Z" fill="#FFBB00"/>
</svg>
