<svg width="73" height="73" viewBox="0 0 73 73" fill="none" xmlns="http://www.w3.org/2000/svg">
<path fill-rule="evenodd" clip-rule="evenodd" d="M12.548 69.2555C13.4683 68.9371 27.3735 61.4096 33.6595 61.8724C35.9692 62.0442 37.1525 60.9439 35.6913 60.0114C34.6021 59.3269 31.655 54.9104 31.1525 54.2179C31.1829 54.1897 41.2981 49.3095 44.0358 40.1159C44.1364 39.7677 44.9503 39.1524 45.967 38.603C54.1515 34.4149 60.6457 22.6899 62.2473 9.26289C62.3787 8.06572 62.6746 6.37615 62.8821 5.50422C63.682 2.04471 58.4462 0.916458 57.4378 8.50191C56.0336 18.9166 53.5358 25.5392 48.8448 31.2027C46.1147 34.5335 45.9359 34.6149 46.0114 32.5362C46.3527 23.1383 33.3115 19.7918 26.93 26.801C22.1064 32.0786 25.7244 40.6235 35.9714 40.9957C37.4645 41.0499 38.6627 41.152 38.6596 41.2399C38.5287 43.2286 32.5204 50.4566 29.8605 51.8551C29.3521 52.1298 25.8025 48.1605 25.918 47.4025C26.1122 46.0903 22.9087 45.5049 21.7526 46.6649C21.4785 46.9481 20.3198 48.9874 19.2132 51.2046C16.7781 56.0998 14.7385 58.9866 11.7003 63.5375C9.12355 67.4895 8.12402 70.7952 12.548 69.2555ZM40.7965 34.868C40.0301 38.2115 36.2753 39.8927 33.2565 38.2587C29.0878 35.9965 28.994 32.1235 30.5663 29.1904C34.7828 21.2524 42.6091 26.9307 40.7965 34.868Z" fill="#FFBB00"/>
</svg>
