<svg width="42" height="42" viewBox="0 0 42 42" fill="none" xmlns="http://www.w3.org/2000/svg">
<path d="M21 38.5C11.3348 38.5 3.5 30.6652 3.5 21C3.5 11.3348 11.3348 3.5 21 3.5C30.6652 3.5 38.5 11.3348 38.5 21C38.5 30.6652 30.6652 38.5 21 38.5ZM19.25 26.25V29.75H22.75V26.25H19.25ZM22.75 23.3713C24.1564 22.9474 25.3638 22.0324 26.1523 20.793C26.9407 19.5537 27.2578 18.0723 27.0458 16.6188C26.8337 15.1653 26.1067 13.8363 24.997 12.8738C23.8874 11.9113 22.4689 11.3794 21 11.375C19.5839 11.3746 18.2114 11.8648 17.1161 12.7623C16.0207 13.6599 15.2702 14.9092 14.9923 16.2977L18.4258 16.9855C18.5232 16.498 18.7571 16.0482 19.1001 15.6884C19.4432 15.3287 19.8814 15.0737 20.3637 14.9532C20.8461 14.8328 21.3527 14.8517 21.8246 15.0079C22.2966 15.1642 22.7145 15.4512 23.0297 15.8356C23.3449 16.22 23.5445 16.6861 23.6052 17.1795C23.6659 17.6729 23.5852 18.1734 23.3726 18.6228C23.16 19.0721 22.8241 19.4519 22.4041 19.7178C21.984 19.9838 21.4971 20.125 21 20.125C20.5359 20.125 20.0908 20.3094 19.7626 20.6376C19.4344 20.9658 19.25 21.4109 19.25 21.875V24.5H22.75V23.3713Z" fill="#FFBB00"/>
</svg>
